<svg xmlns="http://www.w3.org/2000/svg" width="18.756" height="19.896" viewBox="0 0 18.756 19.896"><path d="M28.995,12.782a3.56,3.56,0,0,0-2.818,1.388l-5.466-3.053a3.569,3.569,0,0,0,.2-1.173,3.491,3.491,0,0,0-.2-1.177l5.462-3.049a3.553,3.553,0,1,0-.735-2.161,3.473,3.473,0,0,0,.2,1.177L20.179,7.783a3.554,3.554,0,1,0,.008,4.317l5.462,3.053a3.555,3.555,0,1,0,3.346-2.371Zm0-11.663a2.442,2.442,0,1,1-2.442,2.442A2.444,2.444,0,0,1,28.995,1.12ZM17.361,12.386A2.442,2.442,0,1,1,19.8,9.944,2.444,2.444,0,0,1,17.361,12.386Zm11.634,6.391a2.442,2.442,0,1,1,2.442-2.442A2.444,2.444,0,0,1,28.995,18.777Z" transform="translate(-13.8 0)"/></svg>